<svg xmlns="http://www.w3.org/2000/svg" viewBox="0 0 120 120">
  <defs>
    <linearGradient id="blueGrad" x1="0%" y1="0%" x2="100%" y2="100%">
      <stop offset="0%" style="stop-color:#4F46E5;stop-opacity:1" />
      <stop offset="100%" style="stop-color:#6366F1;stop-opacity:1" />
    </linearGradient>
  </defs>
  
  <!-- Main Circle -->
  <circle cx="60" cy="60" r="55" fill="url(#blueGrad)"/>
  
  <!-- QR Code Icon (simplified) -->
  <g fill="white">
    <!-- Top Left Block -->
    <rect x="28" y="28" width="18" height="18" rx="3"/>
    <rect x="32" y="32" width="10" height="10" rx="2" fill="#4F46E5"/>
    
    <!-- Top Right Block -->
    <rect x="74" y="28" width="18" height="18" rx="3"/>
    <rect x="78" y="32" width="10" height="10" rx="2" fill="#4F46E5"/>
    
    <!-- Bottom Left Block -->
    <rect x="28" y="74" width="18" height="18" rx="3"/>
    <rect x="32" y="78" width="10" height="10" rx="2" fill="#4F46E5"/>
    
    <!-- Center Dot -->
    <circle cx="60" cy="60" r="6" fill="white"/>
    
    <!-- Decorative Elements -->
    <rect x="52" y="30" width="6" height="6" rx="1.5" opacity="0.9"/>
    <rect x="62" y="30" width="6" height="6" rx="1.5" opacity="0.9"/>
    <rect x="30" y="52" width="6" height="6" rx="1.5" opacity="0.9"/>
    <rect x="84" y="52" width="6" height="6" rx="1.5" opacity="0.9"/>
    <rect x="52" y="84" width="6" height="6" rx="1.5" opacity="0.9"/>
    <rect x="62" y="84" width="6" height="6" rx="1.5" opacity="0.9"/>
    
    <!-- Corner Dots -->
    <rect x="74" y="74" width="8" height="8" rx="2" opacity="0.85"/>
    <rect x="86" y="74" width="6" height="6" rx="1.5" opacity="0.8"/>
    <rect x="74" y="86" width="6" height="6" rx="1.5" opacity="0.8"/>
  </g>
</svg>
